<?xml version="1.0" encoding="UTF-8"?>
<svg xmlns="http://www.w3.org/2000/svg" width="72" height="54" viewBox="0 0 72 54">
  <title>Logo Copy</title>
  <g fill="none" fill-rule="evenodd">
    <path d="M23.768.13c.946-.103 1.866-.118 2.825-.118 14.566 0 26.261 11.713 26.372 26.441-.098 4.56-3.23 8.185-7.492 8.185-4.304 0-8.032-3.027-8.032-8.185 0-5.91-5.118-10.58-11.268-10.58S15.596 20.933 15.513 27c0 10.625 6.139 20.617 14.705 25.072.73.455 1.018.504 1.68.873-1.906.526-4.102.71-5.305.71C11.91 53.656 0 41.816 0 27 0 13.25 10.323 1.566 23.768.13z" fill="#49AAF6" fill-rule="nonzero"></path>
    <path d="M39.755.576c9.948 3.832 16.496 15.084 16.58 26.414-.134 6.328-5.34 10.908-10.852 10.908-5.511 0-11.227-3.89-11.227-10.908 0-4.689-3.581-7.868-8.065-7.868-4.226 0-7.45 3.416-7.45 7.868 0 3.867.757 6.044 1.135 7.639.378 1.595 1.874 4.569 1.91 4.641.143.282 1.565 2.877 3.376 5.04 1.703 2.035 3.8 3.65 3.957 3.775a51.43 51.43 0 0 0 1.75 1.28c.163.11 3.04 1.923 5.875 2.827 2.831.902 5.224 1.428 8.374 1.428 14.642 0 26.666-11.815 26.666-26.63C71.784 12.174 60.121.032 45.263.032c-1.584 0-4 .274-5.508.544z" fill="#B2DDFE"></path>
  </g>
</svg>
