<?xml version="1.0" encoding="UTF-8"?>
<svg xmlns="http://www.w3.org/2000/svg" xmlns:xlink="http://www.w3.org/1999/xlink" width="150px" height="38px" viewBox="0 0 150 38">
  <!-- Generator: Sketch 49 (51002) - http://www.bohemiancoding.com/sketch -->
  <title>Group 6</title>
  <desc>Created with Sketch.</desc>
  <defs>
    <path d="M17.1393103,0.184615385 C17.7822529,0.116043956 18.405977,0.103736264 19.055908,0.103736264 C28.9428966,0.103736264 36.8818391,8.13714286 36.9569655,18.2347253 C36.8888276,21.3626374 34.7643218,23.8487912 31.8710805,23.8487912 C28.9498851,23.8487912 26.420046,21.7723077 26.420046,18.2347253 C26.420046,14.1837363 22.9450115,10.9802198 18.7711264,10.9802198 C14.5954943,10.9802198 11.5921839,14.4527473 11.5362759,18.610989 C11.5362759,25.8953846 15.7031724,32.7472527 21.5176092,35.8013187 C22.012046,36.1142857 22.2077241,36.1494505 22.6567356,36.4008791 C21.3638621,36.7630769 19.8718161,36.8896703 19.055908,36.8896703 C9.09029885,36.8896703 1.00634483,28.7701099 1.00634483,18.610989 C1.00634483,9.18153846 8.01406897,1.17098901 17.1393103,0.184615385 Z" id="path-1"></path>
    <path d="M15.7608276,0.492307692 C16.7846437,0.307692308 18.4234483,0.117802198 19.4996782,0.117802198 C29.584092,0.117802198 37.5003218,8.44483516 37.5003218,18.603956 C37.5003218,28.7630769 29.3394943,36.8632967 19.400092,36.8632967 C17.2633563,36.8632967 15.6385287,36.5028571 13.7166897,35.883956 C11.7931034,35.2650549 9.83981609,34.021978 9.728,33.9463736 C9.42749425,33.7441758 8.64128736,33.1498901 8.53995402,33.069011 C8.43512644,32.9828571 7.01121839,31.8751648 5.85462069,30.4808791 C4.62464368,28.9951648 3.66022989,27.2175824 3.56413793,27.0241758 C3.53793103,26.9749451 2.52285057,24.9353846 2.26602299,23.8417582 C2.01094253,22.7481319 1.49728736,21.2553846 1.49728736,18.603956 C1.49728736,15.5516484 3.68468966,13.2079121 6.55347126,13.2079121 C9.59696552,13.2079121 12.0289655,15.3881319 12.0289655,18.603956 C12.0289655,23.4162637 15.9075862,26.0835165 19.6481839,26.0835165 C23.3887816,26.0835165 26.9232184,22.9432967 27.014069,18.603956 C26.9564138,10.8342857 22.5117241,3.11912088 15.7608276,0.492307692 Z" id="path-3"></path>
  </defs>
  <g id="Page-1" stroke="none" stroke-width="1" fill="none" fill-rule="evenodd">
    <g id="Sign-Up" transform="translate(-165.000000, -217.000000)">
      <g id="Group-4" transform="translate(60.000000, 216.000000)">
        <g id="Group-6" transform="translate(104.000000, 0.000000)">
          <g id="FlowAvatar" transform="translate(0.000000, 1.538462)">
            <g id="Group-3">
              <mask id="mask-2" fill="white">
                <use xlink:href="#path-1"></use>
              </mask>
              <g id="Clip-2"></g>
              <polygon id="Fill-1" fill="#4AAAF5" mask="url(#mask-2)" points="-8.62731034 -9.58945055 46.5888736 -9.58945055 46.5888736 46.5828571 -8.62731034 46.5828571"></polygon>
            </g>
            <g id="Group-6" transform="translate(12.229885, 0.000000)">
              <mask id="mask-4" fill="white">
                <use xlink:href="#path-3"></use>
              </mask>
              <g id="Clip-5"></g>
              <polygon id="Fill-4" fill="#B1DCFD" mask="url(#mask-4)" points="-8.13636782 -9.57538462 47.1322299 -9.57538462 47.1322299 46.5582418 -8.13636782 46.5582418"></polygon>
            </g>
          </g>
          <path d="M62.1217391,5.51724138 L81.4815641,5.51724138 L81.4815641,11.3108214 L68.6470373,11.3108214 L68.6470373,17.8884949 L78.4133776,17.8884949 L78.4133776,23.5078319 L68.6470373,23.5078319 L68.6470373,34.5722628 L62.1217391,34.5722628 L62.1217391,5.51724138 Z M84.8331035,5.51724138 L91.0559044,5.51724138 L91.0559044,34.5722628 L84.8331035,34.5722628 L84.8331035,5.51724138 Z M106.051126,29.8241409 C106.82898,29.8241409 107.520395,29.6716798 108.125393,29.366753 C108.73039,29.0618262 109.24175,28.6480032 109.659486,28.1252715 C110.077223,27.6025399 110.386919,27.0144756 110.588585,26.3610611 C110.790251,25.7076466 110.891082,25.0324617 110.891082,24.3354861 C110.891082,23.6385106 110.790251,22.9633257 110.588585,22.3099112 C110.386919,21.6564966 110.077223,21.0756924 109.659486,20.5674811 C109.24175,20.0592698 108.73039,19.6527069 108.125393,19.3477801 C107.520395,19.0428533 106.82898,18.8903922 106.051126,18.8903922 C105.273272,18.8903922 104.574654,19.0428533 103.955252,19.3477801 C103.33585,19.6527069 102.82449,20.0592698 102.421159,20.5674811 C102.017827,21.0756924 101.708131,21.6564966 101.49206,22.3099112 C101.275989,22.9633257 101.167956,23.6385106 101.167956,24.3354861 C101.167956,25.0324617 101.275989,25.7076466 101.49206,26.3610611 C101.708131,27.0144756 102.017827,27.6025399 102.421159,28.1252715 C102.82449,28.6480032 103.33585,29.0618262 103.955252,29.366753 C104.574654,29.6716798 105.273272,29.8241409 106.051126,29.8241409 L106.051126,29.8241409 Z M95.1612244,24.3354861 C95.1612244,22.8253725 95.4277074,21.4096623 95.9606815,20.0883128 C96.4936555,18.7669634 97.2354866,17.6126151 98.186197,16.6252331 C99.1369075,15.6378511 100.282064,14.8610255 101.621702,14.2947329 C102.961339,13.7284403 104.437799,13.4452982 106.051126,13.4452982 C107.664453,13.4452982 109.13371,13.7284403 110.458943,14.2947329 C111.784176,14.8610255 112.92213,15.6378511 113.872841,16.6252331 C114.823551,17.6126151 115.565382,18.7669634 116.098357,20.0883128 C116.631331,21.4096623 116.897814,22.8253725 116.897814,24.3354861 C116.897814,25.8455998 116.631331,27.26131 116.098357,28.5826594 C115.565382,29.9040088 114.823551,31.0583572 113.872841,32.0457392 C112.92213,33.0331212 111.784176,33.8172069 110.458943,34.3980198 C109.13371,34.9788327 107.664453,35.2692348 106.051126,35.2692348 C104.437799,35.2692348 102.961339,34.9788327 101.621702,34.3980198 C100.282064,33.8172069 99.1369075,33.0331212 98.186197,32.0457392 C97.2354866,31.0583572 96.4936555,29.9040088 95.9606815,28.5826594 C95.4277074,27.26131 95.1612244,25.8455998 95.1612244,24.3354861 L95.1612244,24.3354861 Z M118.367086,14.1422702 L124.762742,14.1422702 L128.306282,27.2540565 L132.238746,14.1422702 L137.208344,14.1422702 L141.184023,27.2540565 L144.727562,14.1422702 L150.993577,14.1422702 L144.03614,34.5722628 L138.418333,34.5722628 L134.615511,23.1593458 L130.855902,34.5722628 L125.324523,34.5722628 L118.367086,14.1422702 Z" id="Flow-Copy-41" fill="#38414A"></path>
        </g>
      </g>
    </g>
  </g>
</svg>
